<svg xmlns="http://www.w3.org/2000/svg" style="display: none;">
  <symbol id="icon-whatsapp" viewBox="0 0 30 30">
    <path d="M25.5 4.36508C24.1246 2.97624 22.4865 1.87503 20.6813 1.12562C18.876 0.376219 16.9396 -0.00639475 14.985 8.08427e-05C6.795 8.08427e-05 0.12 6.67508 0.12 14.8651C0.12 17.4901 0.81 20.0401 2.1 22.2901L0 30.0001L7.875 27.9301C10.05 29.1151 12.495 29.7451 14.985 29.7451C23.175 29.7451 29.85 23.0701 29.85 14.8801C29.85 10.9051 28.305 7.17008 25.5 4.36508ZM14.985 27.2251C12.765 27.2251 10.59 26.6251 8.685 25.5001L8.235 25.2301L3.555 26.4601L4.8 21.9001L4.5 21.4351C3.26632 19.4657 2.61139 17.189 2.61 14.8651C2.61 8.05508 8.16 2.50508 14.97 2.50508C18.27 2.50508 21.375 3.79508 23.7 6.13508C24.8514 7.28088 25.7639 8.6439 26.3844 10.1451C27.005 11.6463 27.3213 13.2557 27.315 14.8801C27.345 21.6901 21.795 27.2251 14.985 27.2251ZM21.765 17.9851C21.39 17.8051 19.56 16.9051 19.23 16.7701C18.885 16.6501 18.645 16.5901 18.39 16.9501C18.135 17.3251 17.43 18.1651 17.22 18.4051C17.01 18.6601 16.785 18.6901 16.41 18.4951C16.035 18.3151 14.835 17.9101 13.425 16.6501C12.315 15.6601 11.58 14.4451 11.355 14.0701C11.145 13.6951 11.325 13.5001 11.52 13.3051C11.685 13.1401 11.895 12.8701 12.075 12.6601C12.255 12.4501 12.33 12.2851 12.45 12.0451C12.57 11.7901 12.51 11.5801 12.42 11.4001C12.33 11.2201 11.58 9.39008 11.28 8.64008C10.98 7.92008 10.665 8.01008 10.44 7.99508H9.72C9.465 7.99508 9.075 8.08508 8.73 8.46008C8.4 8.83508 7.44 9.73508 7.44 11.5651C7.44 13.3951 8.775 15.1651 8.955 15.4051C9.135 15.6601 11.58 19.4101 15.3 21.0151C16.185 21.4051 16.875 21.6301 17.415 21.7951C18.3 22.0801 19.11 22.0351 19.755 21.9451C20.475 21.8401 21.96 21.0451 22.26 20.1751C22.575 19.3051 22.575 18.5701 22.47 18.4051C22.365 18.2401 22.14 18.1651 21.765 17.9851Z" fill="currentColor"/>
  </symbol>

  <symbol id="icon-instagram" viewBox="0 0 32 32" fill="none" xmlns="http://www.w3.org/2000/svg">
  <path d="M23.2941 7.41172H25.4118M9.52943 1.05878H22.2353C24.4818 1.05878 26.6364 1.95121 28.2249 3.53975C29.8135 5.1283 30.7059 7.28282 30.7059 9.52936V22.2352C30.7059 24.4818 29.8135 26.6363 28.2249 28.2249C26.6364 29.8134 24.4818 30.7058 22.2353 30.7058H9.52943C7.28289 30.7058 5.12836 29.8134 3.53982 28.2249C1.95127 26.6363 1.05884 24.4818 1.05884 22.2352V9.52936C1.05884 7.28282 1.95127 5.1283 3.53982 3.53975C5.12836 1.95121 7.28289 1.05878 9.52943 1.05878ZM15.8824 22.2352C14.1975 22.2352 12.5816 21.5659 11.3902 20.3745C10.1988 19.1831 9.52943 17.5672 9.52943 15.8823C9.52943 14.1974 10.1988 12.5815 11.3902 11.3901C12.5816 10.1987 14.1975 9.52936 15.8824 9.52936C17.5673 9.52936 19.1832 10.1987 20.3746 11.3901C21.566 12.5815 22.2353 14.1974 22.2353 15.8823C22.2353 17.5672 21.566 19.1831 20.3746 20.3745C19.1832 21.5659 17.5673 22.2352 15.8824 22.2352Z" stroke="currentColor" stroke-width="2.11765"/>
  </symbol>

    <symbol id="icon-tiktok" viewBox="0 0 21 29" fill="none" xmlns="http://www.w3.org/2000/svg">
    <path fill-rule="evenodd" clip-rule="evenodd" d="M13.5 0C13.8978 0 14.2794 0.158035 14.5607 0.43934C14.842 0.720644 15 1.10218 15 1.5C15.0008 2.88288 15.4789 4.22311 16.3534 5.29438C17.2279 6.36565 18.4453 7.10232 19.8 7.38C20.1899 7.45957 20.5322 7.69075 20.7516 8.02268C20.971 8.35462 21.0496 8.76013 20.97 9.15C20.8904 9.53987 20.6593 9.88216 20.3273 10.1016C19.9954 10.321 19.5899 10.3996 19.2 10.32C17.6373 9.99967 16.1878 9.26975 15 8.205V21C15 22.4834 14.5601 23.9334 13.736 25.1668C12.9119 26.4001 11.7406 27.3614 10.3701 27.9291C8.99968 28.4968 7.49168 28.6453 6.03683 28.3559C4.58197 28.0665 3.2456 27.3522 2.1967 26.3033C1.14781 25.2544 0.433503 23.918 0.144114 22.4632C-0.145275 21.0083 0.00324963 19.5003 0.570907 18.1299C1.13856 16.7594 2.09986 15.5881 3.33323 14.764C4.5666 13.9399 6.01664 13.5 7.5 13.5C7.89783 13.5 8.27936 13.658 8.56066 13.9393C8.84197 14.2206 9 14.6022 9 15C9 15.3978 8.84197 15.7794 8.56066 16.0607C8.27936 16.342 7.89783 16.5 7.5 16.5C6.60999 16.5 5.73996 16.7639 4.99994 17.2584C4.25992 17.7529 3.68314 18.4557 3.34255 19.2779C3.00195 20.1002 2.91284 21.005 3.08647 21.8779C3.2601 22.7508 3.68869 23.5526 4.31802 24.182C4.94736 24.8113 5.74918 25.2399 6.6221 25.4135C7.49501 25.5872 8.39981 25.4981 9.22208 25.1575C10.0443 24.8169 10.7472 24.2401 11.2416 23.5001C11.7361 22.76 12 21.89 12 21V1.5C12 1.10218 12.158 0.720644 12.4393 0.43934C12.7206 0.158035 13.1022 0 13.5 0Z" fill="currentColor"/>
    </symbol>

    <symbol id="icon-facebook" viewBox="0 0 11 26" fill="none" xmlns="http://www.w3.org/2000/svg">
    <path fill-rule="evenodd" clip-rule="evenodd" d="M8.11985 3.97059H10.5882V0H8.11985C6.66646 0.00175129 5.27309 0.579886 4.24539 1.60759C3.21768 2.6353 2.63955 4.02866 2.63779 5.48206V7.94118H0V11.9118H2.64706V25.065H6.61765V11.9118H9.2925L10.076 7.94118H6.61765V4.75279C6.62073 4.54607 6.70431 4.3487 6.85063 4.20264C6.99694 4.05657 7.19445 3.97332 7.40118 3.97059H8.11985Z" fill="currentColor"/>
    </symbol>

    <symbol id="icon-share" viewBox="0 0 20 23" fill="none" xmlns="http://www.w3.org/2000/svg">
    <path d="M17.0125 22.5C16.1842 22.5 15.4813 22.2104 14.9038 21.6313C14.3271 21.0513 14.0387 20.3471 14.0387 19.5187C14.0387 19.3937 14.0938 19.0783 14.2037 18.5725L5.2075 13.2312C4.9375 13.5429 4.60708 13.7875 4.21625 13.965C3.82542 14.1425 3.40583 14.2313 2.9575 14.2313C2.13583 14.2313 1.4375 13.9387 0.8625 13.3537C0.2875 12.7687 0 12.0675 0 11.25C0 10.4325 0.2875 9.73125 0.8625 9.14625C1.4375 8.56125 2.13583 8.26875 2.9575 8.26875C3.405 8.26875 3.82458 8.3575 4.21625 8.535C4.60792 8.7125 4.93833 8.9575 5.2075 9.27L14.205 3.95125C14.1467 3.78958 14.1046 3.62917 14.0787 3.47C14.0521 3.31 14.0387 3.14667 14.0387 2.98C14.0387 2.1525 14.3292 1.44875 14.91 0.86875C15.4908 0.289583 16.1958 0 17.025 0C17.8542 0 18.5575 0.290417 19.135 0.87125C19.7125 1.45208 20.0008 2.15708 20 2.98625C19.9992 3.81542 19.7096 4.51875 19.1313 5.09625C18.5529 5.67375 17.8487 5.96208 17.0187 5.96125C16.5671 5.96125 16.1504 5.86875 15.7687 5.68375C15.3871 5.49875 15.0621 5.25 14.7937 4.9375L5.795 10.2787C5.85333 10.4404 5.89542 10.6013 5.92125 10.7613C5.94792 10.9204 5.96125 11.0833 5.96125 11.25C5.96125 11.4167 5.94792 11.5796 5.92125 11.7387C5.89458 11.8979 5.85292 12.0588 5.79625 12.2213L14.7937 17.5625C15.0629 17.25 15.3879 17.0012 15.7687 16.8162C16.1504 16.6312 16.5671 16.5388 17.0187 16.5388C17.8471 16.5388 18.5513 16.8288 19.1313 17.4088C19.7104 17.9904 20 18.6958 20 19.525C20 20.3542 19.7096 21.0575 19.1287 21.635C18.5479 22.2125 17.8417 22.5008 17.0125 22.5Z" fill="currentColor"/>
    </symbol>
</svg>