<svg xmlns="http://www.w3.org/2000/svg" style="display: none;">
  <symbol id="icon-whatsapp" viewBox="0 0 30 30">
    <path d="M25.5 4.36508C24.1246 2.97624 22.4865 1.87503 20.6813 1.12562C18.876 0.376219 16.9396 -0.00639475 14.985 8.08427e-05C6.795 8.08427e-05 0.12 6.67508 0.12 14.8651C0.12 17.4901 0.81 20.0401 2.1 22.2901L0 30.0001L7.875 27.9301C10.05 29.1151 12.495 29.7451 14.985 29.7451C23.175 29.7451 29.85 23.0701 29.85 14.8801C29.85 10.9051 28.305 7.17008 25.5 4.36508ZM14.985 27.2251C12.765 27.2251 10.59 26.6251 8.685 25.5001L8.235 25.2301L3.555 26.4601L4.8 21.9001L4.5 21.4351C3.26632 19.4657 2.61139 17.189 2.61 14.8651C2.61 8.05508 8.16 2.50508 14.97 2.50508C18.27 2.50508 21.375 3.79508 23.7 6.13508C24.8514 7.28088 25.7639 8.6439 26.3844 10.1451C27.005 11.6463 27.3213 13.2557 27.315 14.8801C27.345 21.6901 21.795 27.2251 14.985 27.2251ZM21.765 17.9851C21.39 17.8051 19.56 16.9051 19.23 16.7701C18.885 16.6501 18.645 16.5901 18.39 16.9501C18.135 17.3251 17.43 18.1651 17.22 18.4051C17.01 18.6601 16.785 18.6901 16.41 18.4951C16.035 18.3151 14.835 17.9101 13.425 16.6501C12.315 15.6601 11.58 14.4451 11.355 14.0701C11.145 13.6951 11.325 13.5001 11.52 13.3051C11.685 13.1401 11.895 12.8701 12.075 12.6601C12.255 12.4501 12.33 12.2851 12.45 12.0451C12.57 11.7901 12.51 11.5801 12.42 11.4001C12.33 11.2201 11.58 9.39008 11.28 8.64008C10.98 7.92008 10.665 8.01008 10.44 7.99508H9.72C9.465 7.99508 9.075 8.08508 8.73 8.46008C8.4 8.83508 7.44 9.73508 7.44 11.5651C7.44 13.3951 8.775 15.1651 8.955 15.4051C9.135 15.6601 11.58 19.4101 15.3 21.0151C16.185 21.4051 16.875 21.6301 17.415 21.7951C18.3 22.0801 19.11 22.0351 19.755 21.9451C20.475 21.8401 21.96 21.0451 22.26 20.1751C22.575 19.3051 22.575 18.5701 22.47 18.4051C22.365 18.2401 22.14 18.1651 21.765 17.9851Z" fill="currentColor"/>
  </symbol>

  <symbol id="icon-instagram" viewBox="0 0 32 32" fill="none" xmlns="http://www.w3.org/2000/svg">
  <path d="M23.2941 7.41172H25.4118M9.52943 1.05878H22.2353C24.4818 1.05878 26.6364 1.95121 28.2249 3.53975C29.8135 5.1283 30.7059 7.28282 30.7059 9.52936V22.2352C30.7059 24.4818 29.8135 26.6363 28.2249 28.2249C26.6364 29.8134 24.4818 30.7058 22.2353 30.7058H9.52943C7.28289 30.7058 5.12836 29.8134 3.53982 28.2249C1.95127 26.6363 1.05884 24.4818 1.05884 22.2352V9.52936C1.05884 7.28282 1.95127 5.1283 3.53982 3.53975C5.12836 1.95121 7.28289 1.05878 9.52943 1.05878ZM15.8824 22.2352C14.1975 22.2352 12.5816 21.5659 11.3902 20.3745C10.1988 19.1831 9.52943 17.5672 9.52943 15.8823C9.52943 14.1974 10.1988 12.5815 11.3902 11.3901C12.5816 10.1987 14.1975 9.52936 15.8824 9.52936C17.5673 9.52936 19.1832 10.1987 20.3746 11.3901C21.566 12.5815 22.2353 14.1974 22.2353 15.8823C22.2353 17.5672 21.566 19.1831 20.3746 20.3745C19.1832 21.5659 17.5673 22.2352 15.8824 22.2352Z" stroke="currentColor" stroke-width="2.11765"/>
  </symbol>

    <symbol id="icon-tiktok" viewBox="0 0 21 29" fill="none" xmlns="http://www.w3.org/2000/svg">
    <path fill-rule="evenodd" clip-rule="evenodd" d="M13.5 0C13.8978 0 14.2794 0.158035 14.5607 0.43934C14.842 0.720644 15 1.10218 15 1.5C15.0008 2.88288 15.4789 4.22311 16.3534 5.29438C17.2279 6.36565 18.4453 7.10232 19.8 7.38C20.1899 7.45957 20.5322 7.69075 20.7516 8.02268C20.971 8.35462 21.0496 8.76013 20.97 9.15C20.8904 9.53987 20.6593 9.88216 20.3273 10.1016C19.9954 10.321 19.5899 10.3996 19.2 10.32C17.6373 9.99967 16.1878 9.26975 15 8.205V21C15 22.4834 14.5601 23.9334 13.736 25.1668C12.9119 26.4001 11.7406 27.3614 10.3701 27.9291C8.99968 28.4968 7.49168 28.6453 6.03683 28.3559C4.58197 28.0665 3.2456 27.3522 2.1967 26.3033C1.14781 25.2544 0.433503 23.918 0.144114 22.4632C-0.145275 21.0083 0.00324963 19.5003 0.570907 18.1299C1.13856 16.7594 2.09986 15.5881 3.33323 14.764C4.5666 13.9399 6.01664 13.5 7.5 13.5C7.89783 13.5 8.27936 13.658 8.56066 13.9393C8.84197 14.2206 9 14.6022 9 15C9 15.3978 8.84197 15.7794 8.56066 16.0607C8.27936 16.342 7.89783 16.5 7.5 16.5C6.60999 16.5 5.73996 16.7639 4.99994 17.2584C4.25992 17.7529 3.68314 18.4557 3.34255 19.2779C3.00195 20.1002 2.91284 21.005 3.08647 21.8779C3.2601 22.7508 3.68869 23.5526 4.31802 24.182C4.94736 24.8113 5.74918 25.2399 6.6221 25.4135C7.49501 25.5872 8.39981 25.4981 9.22208 25.1575C10.0443 24.8169 10.7472 24.2401 11.2416 23.5001C11.7361 22.76 12 21.89 12 21V1.5C12 1.10218 12.158 0.720644 12.4393 0.43934C12.7206 0.158035 13.1022 0 13.5 0Z" fill="currentColor"/>
    </symbol>

    <symbol id="icon-facebook" viewBox="0 0 11 26" fill="none" xmlns="http://www.w3.org/2000/svg">
    <path fill-rule="evenodd" clip-rule="evenodd" d="M8.11985 3.97059H10.5882V0H8.11985C6.66646 0.00175129 5.27309 0.579886 4.24539 1.60759C3.21768 2.6353 2.63955 4.02866 2.63779 5.48206V7.94118H0V11.9118H2.64706V25.065H6.61765V11.9118H9.2925L10.076 7.94118H6.61765V4.75279C6.62073 4.54607 6.70431 4.3487 6.85063 4.20264C6.99694 4.05657 7.19445 3.97332 7.40118 3.97059H8.11985Z" fill="currentColor"/>
    </symbol>

    <symbol id="icon-share" viewBox="0 0 20 23" fill="none" xmlns="http://www.w3.org/2000/svg">
    <path d="M17.0125 22.5C16.1842 22.5 15.4813 22.2104 14.9038 21.6313C14.3271 21.0513 14.0387 20.3471 14.0387 19.5187C14.0387 19.3937 14.0938 19.0783 14.2037 18.5725L5.2075 13.2312C4.9375 13.5429 4.60708 13.7875 4.21625 13.965C3.82542 14.1425 3.40583 14.2313 2.9575 14.2313C2.13583 14.2313 1.4375 13.9387 0.8625 13.3537C0.2875 12.7687 0 12.0675 0 11.25C0 10.4325 0.2875 9.73125 0.8625 9.14625C1.4375 8.56125 2.13583 8.26875 2.9575 8.26875C3.405 8.26875 3.82458 8.3575 4.21625 8.535C4.60792 8.7125 4.93833 8.9575 5.2075 9.27L14.205 3.95125C14.1467 3.78958 14.1046 3.62917 14.0787 3.47C14.0521 3.31 14.0387 3.14667 14.0387 2.98C14.0387 2.1525 14.3292 1.44875 14.91 0.86875C15.4908 0.289583 16.1958 0 17.025 0C17.8542 0 18.5575 0.290417 19.135 0.87125C19.7125 1.45208 20.0008 2.15708 20 2.98625C19.9992 3.81542 19.7096 4.51875 19.1313 5.09625C18.5529 5.67375 17.8487 5.96208 17.0187 5.96125C16.5671 5.96125 16.1504 5.86875 15.7687 5.68375C15.3871 5.49875 15.0621 5.25 14.7937 4.9375L5.795 10.2787C5.85333 10.4404 5.89542 10.6013 5.92125 10.7613C5.94792 10.9204 5.96125 11.0833 5.96125 11.25C5.96125 11.4167 5.94792 11.5796 5.92125 11.7387C5.89458 11.8979 5.85292 12.0588 5.79625 12.2213L14.7937 17.5625C15.0629 17.25 15.3879 17.0012 15.7687 16.8162C16.1504 16.6312 16.5671 16.5388 17.0187 16.5388C17.8471 16.5388 18.5513 16.8288 19.1313 17.4088C19.7104 17.9904 20 18.6958 20 19.525C20 20.3542 19.7096 21.0575 19.1287 21.635C18.5479 22.2125 17.8417 22.5008 17.0125 22.5Z" fill="currentColor"/>
    </symbol>

      <symbol id="icon-trophy" viewBox="0 0 50 50">
    <path d="M11.1111 21.6667V11.1111H5.55555V13.8889C5.55555 15.6481 6.06481 17.2342 7.08333 18.6472C8.10185 20.0602 9.44444 21.0667 11.1111 21.6667ZM38.8889 21.6667C40.5555 21.0648 41.8981 20.0574 42.9167 18.6444C43.9352 17.2315 44.4444 15.6463 44.4444 13.8889V11.1111H38.8889V21.6667ZM22.2222 44.4444V35.8333C19.9537 35.324 17.9287 34.3639 16.1472 32.9528C14.3657 31.5416 13.0574 29.7703 12.2222 27.6389C8.75 27.2222 5.84537 25.7065 3.50833 23.0917C1.1713 20.4768 0.00185185 17.4092 0 13.8889V11.1111C0 9.58333 0.544445 8.27592 1.63333 7.18888C2.72222 6.10185 4.02963 5.5574 5.55555 5.55555H11.1111C11.1111 4.02777 11.6556 2.72037 12.7444 1.63333C13.8333 0.546296 15.1407 0.00185185 16.6667 0H33.3333C34.8611 0 36.1694 0.544444 37.2583 1.63333C38.3472 2.72222 38.8907 4.02963 38.8889 5.55555H44.4444C45.9722 5.55555 47.2806 6.1 48.3694 7.18888C49.4583 8.27777 50.0018 9.58518 50 11.1111V13.8889C50 17.4074 48.8305 20.475 46.4917 23.0917C44.1528 25.7083 41.2481 27.2241 37.7778 27.6389C36.9444 29.7685 35.637 31.5398 33.8555 32.9528C32.0741 34.3657 30.0481 35.3259 27.7778 35.8333V44.4444H36.1111C36.8981 44.4444 37.5583 44.7111 38.0917 45.2444C38.625 45.7777 38.8907 46.437 38.8889 47.2222C38.887 48.0074 38.6204 48.6676 38.0889 49.2027C37.5574 49.7379 36.8981 50.0037 36.1111 50H13.8889C13.1019 50 12.4426 49.7333 11.9111 49.2C11.3796 48.6666 11.113 48.0074 11.1111 47.2222C11.1093 46.437 11.3759 45.7777 11.9111 45.2444C12.4463 44.7111 13.1056 44.4444 13.8889 44.4444H22.2222Z" fill="currentColor"/>
  </symbol>

  <symbol id="icon-tag" viewBox="0 0 50 50">
    <path d="M48.525 23.95L26.025 1.45C25.125 0.55 23.875 0 22.5 0H5C2.25 0 0 2.25 0 5V22.5C0 23.875 0.55 25.125 1.475 26.05L23.975 48.55C24.875 49.45 26.125 50 27.5 50C28.875 50 30.125 49.45 31.025 48.525L48.525 31.025C49.45 30.125 50 28.875 50 27.5C50 26.125 49.425 24.85 48.525 23.95ZM8.75 12.5C6.675 12.5 5 10.825 5 8.75C5 6.675 6.675 5 8.75 5C10.825 5 12.5 6.675 12.5 8.75C12.5 10.825 10.825 12.5 8.75 12.5Z" fill="currentColor"/>
  </symbol>

  <symbol id="icon-gift" viewBox="0 0 51 46">
    <path d="M18.4733 9.39984e-05C14.1415 -0.0228257 9.92424 4.14857 11.8495 9.32843H4.58395C3.36821 9.32843 2.20226 9.81138 1.34261 10.671C0.48295 11.5307 0 12.6966 0 13.9124V18.4963C0 19.1042 0.241475 19.6872 0.671303 20.117C1.10113 20.5468 1.6841 20.7883 2.29197 20.7883H22.9197V13.9124H27.5037V20.7883H48.1314C48.7393 20.7883 49.3223 20.5468 49.7521 20.117C50.1819 19.6872 50.4234 19.1042 50.4234 18.4963V13.9124C50.4234 12.6966 49.9405 11.5307 49.0808 10.671C48.2211 9.81138 47.0552 9.32843 45.8395 9.32843H38.5739C41.2555 1.83367 31.1708 -3.46079 26.5181 3.00258L25.2117 4.74448L23.9053 2.95674C22.4613 0.916884 20.4673 0.0230137 18.4733 9.39984e-05ZM18.3358 4.74448C20.3756 4.74448 21.407 7.21981 19.9631 8.66375C18.5191 10.1077 16.0438 9.07631 16.0438 7.03645C16.0438 6.42858 16.2853 5.84561 16.7151 5.41578C17.1449 4.98595 17.7279 4.74448 18.3358 4.74448ZM32.0876 4.74448C34.1275 4.74448 35.1589 7.21981 33.7149 8.66375C32.271 10.1077 29.7957 9.07631 29.7957 7.03645C29.7957 6.42858 30.0371 5.84561 30.467 5.41578C30.8968 4.98595 31.4798 4.74448 32.0876 4.74448ZM2.29197 23.0803V41.4161C2.29197 42.6318 2.77492 43.7977 3.63458 44.6574C4.49424 45.517 5.66018 46 6.87592 46H43.5475C44.7632 46 45.9292 45.517 46.7888 44.6574C47.6485 43.7977 48.1314 42.6318 48.1314 41.4161V23.0803H27.5037V41.4161H22.9197V23.0803H2.29197Z" fill="currentColor"/>
  </symbol>

  <symbol id="icon-discount" viewBox="0 0 50 50">
    <path fill-rule="evenodd" clip-rule="evenodd" d="M19.4128 2.49662C20.1162 1.7111 20.9773 1.08274 21.9399 0.652548C22.9025 0.222354 23.9451 0 24.9994 0C26.0538 0 27.0964 0.222354 28.059 0.652548C29.0216 1.08274 29.8827 1.7111 30.5861 2.49662L32.3358 4.45131C32.5858 4.73103 32.8956 4.95088 33.2422 5.09454C33.5889 5.2382 33.9634 5.30199 34.338 5.28118L36.9626 5.1362C38.015 5.0784 39.0678 5.24312 40.0523 5.61962C41.0368 5.99613 41.9309 6.57595 42.6762 7.32127C43.4216 8.06659 44.0014 8.96066 44.3779 9.94517C44.7544 10.9297 44.9191 11.9825 44.8613 13.0349L44.7163 15.6595C44.6959 16.0337 44.7599 16.4077 44.9035 16.7539C45.0472 17.1 45.2668 17.4094 45.5462 17.6592L47.5034 19.4089C48.2893 20.1123 48.918 20.9735 49.3485 21.9364C49.7789 22.8993 50.0014 23.9421 50.0014 24.9968C50.0014 26.0515 49.7789 27.0943 49.3485 28.0572C48.918 29.0201 48.2893 29.8813 47.5034 30.5847L45.5462 32.3344C45.2665 32.5844 45.0466 32.8943 44.903 33.2409C44.7593 33.5875 44.6955 33.962 44.7163 34.3366L44.8613 36.9612C44.9191 38.0136 44.7544 39.0664 44.3779 40.0509C44.0014 41.0354 43.4216 41.9295 42.6762 42.6748C41.9309 43.4202 41.0368 44 40.0523 44.3765C39.0678 44.753 38.015 44.9177 36.9626 44.8599L34.338 44.7149C33.9638 44.6945 33.5898 44.7585 33.2436 44.9021C32.8975 45.0458 32.5881 45.2654 32.3383 45.5448L30.5886 47.502C29.8852 48.2879 29.024 48.9166 28.0611 49.3471C27.0982 49.7775 26.0554 50 25.0007 50C23.946 50 22.9032 49.7775 21.9403 49.3471C20.9774 48.9166 20.1162 48.2879 19.4128 47.502L17.6631 45.5448C17.4131 45.2651 17.1032 45.0452 16.7566 44.9016C16.41 44.7579 16.0355 44.6941 15.6609 44.7149L13.0363 44.8599C11.9839 44.9177 10.9311 44.753 9.94656 44.3765C8.96206 44 8.06799 43.4202 7.32267 42.6748C6.57734 41.9295 5.99752 41.0354 5.62102 40.0509C5.24452 39.0664 5.0798 38.0136 5.1376 36.9612L5.28258 34.3366C5.303 33.9624 5.23902 33.5884 5.09538 33.2422C4.95173 32.8961 4.73209 32.5867 4.45271 32.3369L2.49802 30.5872C1.71209 29.8838 1.08337 29.0226 0.65293 28.0597C0.222487 27.0968 0 26.054 0 24.9993C0 23.9446 0.222487 22.9018 0.65293 21.9389C1.08337 20.976 1.71209 20.1148 2.49802 19.4114L4.45271 17.6617C4.73243 17.4117 4.95227 17.1018 5.09593 16.7552C5.23959 16.4086 5.30338 16.0341 5.28258 15.6595L5.1376 13.0349C5.0798 11.9825 5.24452 10.9297 5.62102 9.94517C5.99752 8.96066 6.57734 8.06659 7.32267 7.32127C8.06799 6.57595 8.96206 5.99613 9.94656 5.61962C10.9311 5.24312 11.9839 5.0784 13.0363 5.1362L15.6609 5.28118C16.0351 5.30161 16.4091 5.23763 16.7553 5.09398C17.1014 4.95033 17.4108 4.73069 17.6606 4.45131L19.4128 2.49662ZM34.2655 15.732C34.7341 16.2008 34.9973 16.8364 34.9973 17.4992C34.9973 18.162 34.7341 18.7977 34.2655 19.2665L19.2679 34.2641C18.7964 34.7194 18.165 34.9714 17.5096 34.9657C16.8542 34.96 16.2273 34.6971 15.7639 34.2336C15.3004 33.7702 15.0375 33.1433 15.0318 32.4879C15.0261 31.8325 15.2781 31.2011 15.7334 30.7296L30.731 15.732C31.1998 15.2634 31.8355 15.0002 32.4983 15.0002C33.1611 15.0002 33.7967 15.2634 34.2655 15.732ZM18.7504 14.9996C17.756 14.9996 16.8024 15.3947 16.0992 16.0978C15.3961 16.801 15.001 17.7546 15.001 18.749V18.774C15.001 19.7684 15.3961 20.7221 16.0992 21.4253C16.8024 22.1284 17.756 22.5234 18.7504 22.5234H18.7754C19.7698 22.5234 20.7235 22.1284 21.4267 21.4253C22.1298 20.7221 22.5248 19.7684 22.5248 18.774V18.749C22.5248 17.7546 22.1298 16.801 21.4267 16.0978C20.7235 15.3947 19.7698 14.9996 18.7754 14.9996H18.7504ZM31.2485 27.4977C30.2541 27.4977 29.3004 27.8927 28.5972 28.5958C27.8941 29.299 27.4991 30.2527 27.4991 31.2471V31.2721C27.4991 32.2665 27.8941 33.2201 28.5972 33.9233C29.3004 34.6264 30.2541 35.0215 31.2485 35.0215H31.2735C32.2679 35.0215 33.2215 34.6264 33.9247 33.9233C34.6278 33.2201 35.0229 32.2665 35.0229 31.2721V31.2471C35.0229 30.2527 34.6278 29.299 33.9247 28.5958C33.2215 27.8927 32.2679 27.4977 31.2735 27.4977H31.2485Z" fill="currentColor"/>
  </symbol>

  <symbol id="icon-brain" viewBox="0 0 50 50">
    <path d="M18.4971 4.38689e-06C20.3616 4.38689e-06 22.0783 0.633337 23.4449 1.69584V47.9375C21.8696 49.2714 19.8717 50.0024 17.8075 50C15.8026 49.9997 13.8584 49.3118 12.2994 48.0511C10.7404 46.7905 9.66087 45.0334 9.24092 43.0729L9.15759 42.6771C6.99126 42.5159 4.93823 41.646 3.31549 40.2018C1.69275 38.7576 0.590559 36.8194 0.179082 34.6863C-0.232394 32.5533 0.0697336 30.3442 1.03882 28.4C2.0079 26.4557 3.59004 24.8846 5.54096 23.9292C4.10894 22.7604 3.05438 21.1943 2.50985 19.4279C1.96532 17.6615 1.95512 15.7735 2.48055 14.0013C3.00597 12.2291 4.04356 10.6517 5.46288 9.46755C6.88221 8.28337 8.61992 7.54521 10.4576 7.34584C10.6386 5.33838 11.5643 3.47132 13.0524 2.11191C14.5406 0.752504 16.4836 -0.000860328 18.4991 4.38689e-06M31.5198 4.38689e-06C33.5347 0.000180175 35.4766 0.754011 36.9639 2.11332C38.4512 3.47263 39.3762 5.33909 39.5572 7.34584C41.3949 7.54521 43.1326 8.28337 44.5519 9.46755C45.9712 10.6517 47.0088 12.2291 47.5343 14.0013C48.0597 15.7735 48.0495 17.6615 47.505 19.4279C46.9604 21.1943 45.9059 22.7604 44.4738 23.9292C46.4207 24.8873 47.9986 26.4587 48.9648 28.4016C49.931 30.3444 50.2318 32.551 49.821 34.6816C49.4102 36.8122 48.3105 38.7487 46.6912 40.1931C45.0719 41.6374 43.0228 42.5094 40.8593 42.675L40.776 43.0708C40.3564 45.032 39.2767 46.7899 37.7172 48.051C36.1577 49.3121 34.2129 50 32.2073 50C30.1431 50.0024 28.1452 49.2714 26.5699 47.9375V1.69584C27.9841 0.594996 29.7276 -0.00186693 31.5198 4.38689e-06Z" fill="currentColor"/>
  </symbol>

  <symbol id="icon-box" viewBox="0 0 50 56">
    <path d="M23.3269 56V29.3358L0 15.8467V42.5886L23.3269 56ZM26.4371 56L49.764 42.5886V15.8467L26.4371 29.3358V56ZM37.8424 19.156L48.0347 13.3087L24.882 0L14.8514 5.76329L37.8424 19.156ZM24.882 26.661L34.7321 20.9537L11.6385 7.60455L1.77284 13.2683L24.882 26.661Z" fill="currentColor"/>
  </symbol>

  <symbol id="icon-location" viewBox="0 0 119 119">
    <path d="M59.5 57.0207C56.2124 57.0207 53.0595 55.7147 50.7348 53.39C48.4102 51.0653 47.1042 47.9124 47.1042 44.6248C47.1042 41.3373 48.4102 38.1843 50.7348 35.8597C53.0595 33.535 56.2124 32.229 59.5 32.229C62.7876 32.229 65.9405 33.535 68.2652 35.8597C70.5899 38.1843 71.8959 41.3373 71.8959 44.6248C71.8959 46.2527 71.5752 47.8646 70.9523 49.3685C70.3293 50.8725 69.4163 52.239 68.2652 53.39C67.1141 54.5411 65.7476 55.4541 64.2437 56.0771C62.7398 56.7 61.1279 57.0207 59.5 57.0207ZM59.5 9.9165C50.2948 9.9165 41.4666 13.5733 34.9575 20.0823C28.4484 26.5914 24.7917 35.4196 24.7917 44.6248C24.7917 70.6561 59.5 109.083 59.5 109.083C59.5 109.083 94.2084 70.6561 94.2084 44.6248C94.2084 35.4196 90.5516 26.5914 84.0425 20.0823C77.5334 13.5733 68.7052 9.9165 59.5 9.9165Z" fill="currentColor"/>
  </symbol>

  <symbol id="icon-map" viewBox="0 0 50 50">
    <path d="M31.25 43.75L18.75 39.375L9.0625 43.125C8.36806 43.4028 7.72569 43.325 7.13542 42.8917C6.54514 42.4583 6.25 41.8764 6.25 41.1458V11.9792C6.25 11.5278 6.38056 11.1285 6.64167 10.7812C6.90278 10.434 7.25833 10.1736 7.70833 10L18.75 6.25L31.25 10.625L40.9375 6.875C41.6319 6.59722 42.2743 6.67569 42.8646 7.11042C43.4549 7.54514 43.75 8.12639 43.75 8.85417V38.0208C43.75 38.4722 43.6201 38.8715 43.3604 39.2188C43.1007 39.566 42.7444 39.8264 42.2917 40L31.25 43.75ZM29.1667 38.6458V14.2708L20.8333 11.3542V35.7292L29.1667 38.6458Z" fill="currentColor"/>
  </symbol>

  <symbol id="icon-phone" viewBox="0 0 45 45">
    <path d="M16.8825 6.40482C15.81 4.88607 14.325 4.20169 12.75 4.21857C11.2556 4.23357 9.80063 4.87294 8.58563 5.72419C7.34636 6.59667 6.28966 7.70305 5.475 8.98107C4.70625 10.1979 4.15125 11.6361 4.22625 13.0404C4.58813 19.7961 8.38875 27.0148 13.7269 32.3567C19.0613 37.6929 26.1844 41.4017 33.3769 40.6929C34.7869 40.5542 36.12 39.8361 37.2094 38.9211C38.3361 37.9667 39.2567 36.7928 39.915 35.4711C40.5525 34.1736 40.9331 32.6773 40.7231 31.2204C40.5056 29.7017 39.6563 28.3442 38.0944 27.4442C37.7708 27.2564 37.4507 27.0627 37.1344 26.8629C36.8531 26.6886 36.5531 26.4992 36.1894 26.2817C35.4464 25.8236 34.6624 25.4357 33.8475 25.1229C33.0094 24.8173 32.0513 24.6167 31.0538 24.7536C30.0206 24.8961 29.0606 25.3836 28.23 26.2573C27.5906 26.9323 26.6494 27.1423 25.3256 26.7598C23.9794 26.3698 22.4644 25.4023 21.1481 24.0936C19.8319 22.7886 18.8363 21.2623 18.4106 19.8842C17.9906 18.5192 18.1763 17.5161 18.8325 16.8242C19.7194 15.8904 20.1919 14.8517 20.2913 13.7529C20.3888 12.6842 20.1225 11.6792 19.7419 10.8017C19.1719 9.49107 18.2044 8.18794 17.4469 7.17169C17.2564 6.91761 17.0689 6.66135 16.8844 6.40294" fill="currentColor"/>
  </symbol>

  <symbol id="icon-mail" viewBox="0 0 78 62" xmlns="http://www.w3.org/2000/svg">
  <path d="M65.875 0H11.625C8.54186 0 5.58499 1.22477 3.40488 3.40488C1.22477 5.58499 0 8.54186 0 11.625V50.375C0 53.4581 1.22477 56.415 3.40488 58.5951C5.58499 60.7752 8.54186 62 11.625 62H65.875C68.9581 62 71.915 60.7752 74.0951 58.5951C76.2752 56.415 77.5 53.4581 77.5 50.375V11.625C77.5 8.54186 76.2752 5.58499 74.0951 3.40488C71.915 1.22477 68.9581 0 65.875 0ZM65.875 7.75L40.6875 25.0713C40.0984 25.4114 39.4302 25.5904 38.75 25.5904C38.0698 25.5904 37.4016 25.4114 36.8125 25.0713L11.625 7.75H65.875Z" fill="currentColor"/>
  </symbol>

  <symbol id="icon-clock" viewBox="0 0 108 108" xmlns="http://www.w3.org/2000/svg">
  <path d="M80.625 7.20192C88.7319 11.8828 95.4758 18.5997 100.189 26.6879C104.902 34.7761 107.421 43.9549 107.497 53.3159C107.573 62.6768 105.202 71.8952 100.62 80.0584C96.0382 88.2217 89.4037 95.0467 81.3734 99.8579C73.3432 104.669 64.1956 107.3 54.8363 107.489C45.477 107.678 36.2305 105.42 28.0121 100.938C19.7938 96.4555 12.8886 89.9045 7.98008 81.9333C3.07161 73.9622 0.330075 64.8472 0.0268756 55.4909L0 53.7494L0.0268756 52.0079C0.327892 42.7252 3.02907 33.679 7.86706 25.751C12.7051 17.8231 19.5148 11.284 27.6323 6.77129C35.7498 2.2586 44.8982 -0.0736955 54.1854 0.00177507C63.4727 0.0772456 72.5819 2.55791 80.625 7.20192ZM53.75 21.4994C52.4335 21.4996 51.1628 21.9829 50.179 22.8578C49.1952 23.7326 48.5667 24.9381 48.4126 26.2455L48.375 26.8744V53.7494L48.4234 54.4535C48.5459 55.3861 48.911 56.2702 49.4823 57.0174L49.9499 57.5549L66.0749 73.6799L66.5801 74.1207C67.5228 74.852 68.6819 75.249 69.875 75.249C71.0681 75.249 72.2272 74.852 73.1699 74.1207L73.6751 73.6745L74.1212 73.1693C74.8526 72.2267 75.2496 71.0675 75.2496 69.8744C75.2496 68.6813 74.8526 67.5222 74.1212 66.5795L73.6751 66.0743L59.125 51.5188V26.8744L59.0874 26.2455C58.9333 24.9381 58.3048 23.7326 57.321 22.8578C56.3372 21.9829 55.0665 21.4996 53.75 21.4994Z" fill="currentColor"/>
  </symbol>

  <symbol id="icon-header-menu" viewBox="0 0 138 119">
  <rect x="31.9231" y="27.1923" width="78" height="5" rx="2.5" fill="currentColor"/>
  <rect x="31.9231" y="49.1923" width="78" height="5" rx="2.5" fill="currentColor"/>
  <rect x="31.9231" y="71.1923" width="78" height="5" rx="2.5" fill="currentColor"/>
</symbol>

  <symbol id="icon-header-close" viewBox="0 0 137 118">
  <rect x="46.8813" y="27.3712" width="78.2033" height="6.81482" rx="3.40741" transform="rotate(45 46.8813 27.3712)" fill="currentColor"/>
  <rect x="38.5864" y="82.1135" width="78.2033" height="6.81482" rx="3.40741" transform="rotate(-45 38.5864 82.1135)" fill="currentColor"/>
</symbol>

  <symbol id="icon-header-logo" viewBox="0 0 507 492">
  <path d="M311 73H311.25H315.75H316V74H317V75H318V75.25V120.75V121H318.25H329.75H330V122H332V124H333V124.25V128.75V129H332V130H331V131H330V133H329V134H327V136H326V137H325V138H324V139H323V140H322V141H321V142H320V144H319.75H308.25H308V145H307.75H305.25H305V146H303V147H302V148H301V149H300V150H299V151H298V153H297V154H296V154.25V157.75V158H295V158.25V163.75V164H296V164.25V166.75V167H297V169H298V170H299V171H300V172H302V173H302.25H304.75H305V174H305.25H309.75H310V173H310.25H312.75H313V172H315V172.25V373.75V374H314V375H313V376H312V377H311V378H309V379H307V380H306.75H304.25H304V381H303.75H290.25H290V380H289.75H286.25H286V379H284V378H283V377.75V246.25V246H283.25H293.75C294 246.083 294.083 246 294 245.75V243.25V243H293V242.75V229.25V229H294V228.75V221.25V221H295V220.75V216.25V216H296V215.75V211.25V211H297V210.75V206.25V206H298V205.75V196.25V196H299V195.75V176.25V176H298V177H297V178H296V179H295V181H294V182H293V184H292V185H291V186H290V188H289V189H288V191H287V192H286V193H285V195H284V196H283V198H282V199H281V201H280V202H279V204H278V205H277V207H276V208H275V209H274C274 209.25 274 209.833 274 210.75V211H273V213H272V214H271V215H270C270 215.25 270 215.833 270 216.75V217H269V219H268V220H267V221H266C266 221.25 266 221.833 266 222.75V223H265V225H264V226H263V228H262V229H261C261 229.25 261 229.833 261 230.75V231H260V233H259V234H258V236H257V237H256V239H255V240H254V242H253V244H252V245H251C251 245.25 251 245.833 251 246.75V247H250V249H249V250H248V252H247V253H246V255H245C245 255.25 245 255.833 245 256.75V257H244V259H243V260H242C242 260.25 242 260.833 242 261.75V262H241V264H240V265H239V267H238V269H237C237 269.25 237 269.833 237 270.75V271H236V273H235V274H234V276H233C233 276.25 233 276.833 233 277.75V278H232V280H231V281H230V283H229V285H228V287H227V289H226C226 289.25 226 289.833 226 290.75V291H225V293H224V294H223V296H222V298H221V300H220V302H219V304H218V306H217V308H216V310H215V312H214V314H213V316H212V318H211V320H210V322H209V324H208V324.25V326.75V327H207V329H206V331H205V333H204V333.25V335.75V336H203V338H202V340H201V342H200V342.25V344.75V345H199V347H198V349H197V349.25V351.75V352H196V354H195V354.25V356.75V357H194V359H193V359.25V361.75V362H192V362.25V364.75V365H191V367H190V367.25V369.75V370H189V370.25V372.75V373H188V373.25V375.75V376H187V376.25V378.75V379H186V379.25V381.75V382H185V382.25V384.75V385H184V385.25V388.75V389H183V389.25V391.75V392H182V392.25V395.75V396H181V396.25V399.75V400H180V400.25V404.75V405H179V405.25V408.75V409H178V410H177.75H171.25H171V409H170.75H166.25H166V408H164V407H163.75H161.25H161V406C160.75 406 160.167 406 159.25 406H159V405H157V404H156V403H154V402H153V401H152V400H151V399H150V398H149V396H148V394H147V392H146V391.75V389.25V389H145V388.75V381.25V381H146V379H147V377H148V375H149V373H150V371H151V369H152V367H153V365H154V363H155V361H156V359H157V358.75V356.25V356H158V354H159V353H160V352.75V350.25V350H161C161 349.75 161 349.167 161 348.25V348H162V346H163V345H164V344.75V342.25V342H165V340H166V338H167V336H168V334H169V332H170V330H171V328H172V326H173C173 325.75 173 325.167 173 324.25V324H174V322H175V321H176V320.75V318.25V318H177C177 317.75 177 317.167 177 316.25V316H178V314H179V313H180V311H181V310.75V308.25V308H182V306H183V305H184V303H185V301H186V299H187V297H188V295H189V293H190V291H191V289H192V287H193C193 286.75 193 286.167 193 285.25V285H194V283H195V282H196V280H197V278H198V276H199V274H200C200 273.75 200 273.167 200 272.25V272H201V270H202V269H203V267H204V265H205V263H206V261H207V259H208C208 258.75 208 258.167 208 257.25V257H209V255H210V254H211V252H212V250H213C213 249.75 213 249.167 213 248.25V248H214V246H215V245H216V243H217C217 242.75 217 242.167 217 241.25V241H218V239H219V238H220V236H221V234H222C222 233.75 222 233.167 222 232.25V232H223V230H224V229H225V227H226C226 226.75 226 226.167 226 225.25V225H227V223H228V222H229V220H230V218H231V217H232C232 216.75 232 216.167 232 215.25V215H233V213H234V212H235V210H236V209H237C237 208.75 237 208.167 237 207.25V207H238V205H239V204H240V202H241V201H242C242 200.75 242 200.167 242 199.25V199H243V197H244V196H245V194H246V193H247V191H248V190H249V189H250V187H251V186H252C252 185.75 252 185.167 252 184.25V184H253V182H254V181H255V180H256V178H257V177H258V175H259V174H260V173H261V172H262V170H263V169H264V168H265V166H266V165H267V163H268V162H269V161H270V159H271V158H272V157H273V156H274V155H275V154H276V152H277V151H278V150H279V149H280V148H281V146H282V145H283V144H284V143H285V142H286V141H287V140H288V139H289V138H290V137H291V135H292V134H294V133H295V132H296V130H298V129H299V128H300V127H301V126H302V125.75V122.25V122H303V121.75V106.25V106H304V105.75V97.25V97H305V96.75V91.25V91H306V90.75V86.25V86H307V85.75V82.25V82H308V81.75V79.25V79H309V77H310V75H311V73Z" fill="currentColor" stroke="currentColor"/>
</symbol>
</svg>